<?xml version="1.0" encoding="UTF-8"?>
<svg width="484px" height="238px" viewBox="0 0 484 238" version="1.1" xmlns="http://www.w3.org/2000/svg" xmlns:xlink="http://www.w3.org/1999/xlink">
    <!-- Generator: Sketch 40.1 (33804) - http://www.bohemiancoding.com/sketch -->
    <title>logo</title>
    <desc>Created with Sketch.</desc>
    <defs></defs>
    <g id="Page-1" stroke="none" stroke-width="1" fill="none" fill-rule="evenodd">
        <g id="logo" transform="translate(1.000000, 0.000000)" fill="#FFFFFF">
            <g id="symbol" transform="translate(162.000000, 0.470276)">
                <g id="Group">
                    <g id="Shape">
                        <path d="M63.5795567,3.86372989 L63.1715852,2.10385288 C65.5378199,1.55349134 67.953651,1.11352209 70.3550832,0.775945682 L70.6078656,2.56942034 C68.2576298,2.89419765 65.8913952,3.3341669 63.5795567,3.86372989 L63.5795567,3.86372989 Z"></path>
                        <path d="M99.0602771,3.75813727 C96.7532384,3.23337394 94.3902035,2.8190029 92.0159694,2.51502415 L92.2559527,0.719949595 C94.6797833,1.03192779 97.0988142,1.46229772 99.4506499,1.99186071 L99.0602771,3.75813727 L99.0602771,3.75813727 Z"></path>
                        <path d="M77.7369673,1.91986574 L77.6521733,0.11359197 C80.0904029,-9.11649121e-08 82.5654299,-9.11649121e-08 84.9668621,0.0959932003 L84.8996668,1.90706663 C82.5126336,1.80787357 80.1144012,1.80787357 77.7369673,1.91986574 L77.7369673,1.91986574 Z"></path>
                        <path d="M11.6023892,123.544966 C12.8567015,125.63442 14.2150066,127.682277 15.6421068,129.63894 L17.1044047,128.568615 C15.7093022,126.661548 14.3781952,124.663288 13.1478812,122.613831 L11.6023892,123.544966 L11.6023892,123.544966 Z"></path>
                        <path d="M5.22683472,110.390685 C6.09077434,112.680125 7.06030659,114.942367 8.1162328,117.108616 L9.74011931,116.319871 C8.71299109,114.201619 7.7626575,111.988974 6.91471676,109.75713 L5.22683472,110.390685 L5.22683472,110.390685 Z"></path>
                        <path d="M1.32150765,96.3052696 C1.7614769,98.7019021 2.30863866,101.103334 2.95659338,103.432771 L4.70047151,102.951205 C4.06691578,100.668165 3.53095324,98.3227286 3.10058331,95.9788924 L1.32150765,96.3052696 L1.32150765,96.3052696 Z"></path>
                        <path d="M1.80787366,81.7510867 L0,81.7510867 C0.00319977638,84.179717 0.116791838,86.6371452 0.33597652,89.0609759 L2.13585074,88.8977873 C1.91986583,86.5235532 1.80947354,84.122121 1.80787366,81.7510867 L1.80787366,81.7510867 Z"></path>
                        <path d="M3.04938689,67.5136817 L1.26871134,67.1937041 C0.846340853,69.5823371 0.52156355,72.017367 0.308778421,74.449197 L2.10865264,74.6027863 C2.31823799,72.2269523 2.63181607,69.8399191 3.04938689,67.5136817 L3.04938689,67.5136817 Z"></path>
                        <path d="M6.80752425,53.7210456 L5.11324266,53.0922895 C4.26050225,55.3881291 3.50535503,57.7255657 2.87019942,60.0502033 L4.61567743,60.5285699 C5.23803394,58.2583285 5.97718228,55.9688885 6.80752425,53.7210456 L6.80752425,53.7210456 Z"></path>
                        <path d="M12.9862924,40.837146 L11.4312011,39.9140105 C10.1896879,41.9970649 9.02816906,44.1665133 7.97544263,46.3631598 L9.6057287,47.1391056 C10.6344568,45.0000551 11.7719773,42.8722038 12.9862924,40.837146 L12.9862924,40.837146 Z"></path>
                        <path d="M15.4565198,33.8056374 L16.9204175,34.8647634 C18.3139201,32.9416978 19.8114155,31.0586294 21.3713065,29.2651547 L20.0066018,28.0764378 C18.4083135,29.9067099 16.8788204,31.8393748 15.4565198,33.8056374 L15.4565198,33.8056374 Z"></path>
                        <path d="M30.5386658,17.9555451 C28.6523976,19.4642396 26.801327,21.089726 25.0462496,22.7712085 L26.2973622,24.0847167 C28.017242,22.4304324 29.8283154,20.8353438 31.6681869,19.3666465 L30.5386658,17.9555451 L30.5386658,17.9555451 Z"></path>
                        <path d="M137.708776,22.4336321 C135.956899,20.7665486 134.099428,19.1570611 132.193962,17.6371673 L131.062841,19.057868 C132.93791,20.5393645 134.750583,22.1152544 136.468863,23.7455404 L137.708776,22.4336321 L137.708776,22.4336321 Z"></path>
                        <path d="M43.571355,11.4440001 L42.7074154,9.86171072 C40.5891634,11.0056308 38.4821107,12.275942 36.4422532,13.6326472 L37.446983,15.1301425 C39.4388438,13.807035 41.4994998,12.5719213 43.571355,11.4440001 L43.571355,11.4440001 Z"></path>
                        <path d="M126.258376,13.3510669 C124.232918,12.0215598 122.122665,10.7656475 119.962816,9.61372805 L119.118075,11.2088166 C121.213929,12.3287383 123.285784,13.5606522 125.271245,14.8597614 L126.258376,13.3510669 L126.258376,13.3510669 Z"></path>
                        <path d="M56.6904382,5.78359572 L56.1240778,4.06851558 C53.7962404,4.83166225 51.4940013,5.70680109 49.2893554,6.66193434 L50.0029055,8.32261828 C52.1627546,7.38668369 54.4169971,6.53874295 56.6904382,5.78359572 L56.6904382,5.78359572 Z"></path>
                        <path d="M113.371277,6.46194831 C111.144233,5.52441383 108.837194,4.6620741 106.510956,3.91332643 L105.958995,5.63640601 C108.235636,6.36435513 110.488278,7.20589632 112.664126,8.1306317 L113.371277,6.46194831 L113.371277,6.46194831 Z"></path>
                        <path d="M158.595317,42.8610046 L154.25002,38.5237077 L156.037095,23.7455404 L154.051634,21.777678 L148.936792,33.1992798 L145.976998,30.2458862 C145.719416,29.9851044 145.370641,29.7867183 145.002666,29.6683265 L146.000997,24.7358712 L144.413908,23.1471823 L142.052473,28.6779957 L136.524859,31.0362309 L138.107148,32.6265198 L143.046003,31.6281896 C143.165995,31.994564 143.364381,32.3417397 143.625163,32.6041214 L146.584956,35.5639145 L135.155355,40.6851566 L137.118417,42.6626184 L151.909384,40.8835428 L156.240281,45.2208396 C157.040225,46.031983 158.099351,46.5263484 159.236872,46.6079427 C159.435258,46.6079427 159.632044,46.5503467 159.779234,46.4095566 C159.913624,46.2671665 160.000018,46.0719802 159.985619,45.873594 C159.902425,44.7264742 159.40646,43.6673482 158.595317,42.8610046 L158.595317,42.8610046 Z"></path>
                        <path d="M81.7382877,24.2031085 C52.5355285,24.2031085 28.7803887,47.9582483 28.7803887,77.1610075 C28.7803887,106.360567 52.5355285,130.118907 81.7382877,130.118907 C110.937847,130.118907 134.696187,106.360567 134.696187,77.1610075 C134.696187,47.9582483 110.937847,24.2031085 81.7382877,24.2031085 L81.7382877,24.2031085 Z M124.908071,85.7940042 C125.869604,86.7651363 126.299973,87.6610737 126.49356,88.6322058 C121.378717,108.574812 103.251984,123.359379 81.7382877,123.359379 C73.7724444,123.359379 66.2737684,121.332321 59.7254261,117.76937 C59.7910215,117.48299 59.855017,117.19181 59.9190125,116.881432 C60.3093853,114.998363 63.2195819,114.094426 64.4690946,112.848113 C65.6866095,111.628999 68.1088402,110.89145 68.8607876,109.297962 C69.3535532,108.253235 68.656002,106.914128 69.0751727,105.939796 C69.3935504,105.207047 70.6078656,104.408703 71.1774257,103.837543 C72.6077258,102.407243 73.6796509,98.6859032 73.6796509,96.7308398 L67.2608995,96.7308398 C65.2338411,96.7308398 65.6274136,94.3342073 65.6194142,92.8447114 C65.6178143,92.0447673 65.6690107,91.0672357 65.2802379,90.3360867 C64.8370688,89.5041449 63.4019691,89.7473279 62.6324229,89.3569552 C61.2933165,88.6770027 60.1829941,87.3458957 59.9206124,85.8500003 C59.7478245,84.8692688 59.783022,84.150919 58.5495083,84.1989156 C57.336793,84.2501121 56.2104717,85.2212442 55.0825505,85.2212442 L50.8348474,85.2212442 L41.4451036,85.2212442 C41.4451036,85.7284088 41.1571237,87.3794934 41.6194914,87.6114772 C42.7762106,88.1874369 43.9313298,88.7665964 45.0864491,89.3441561 C46.8111286,90.2080957 47.3166933,92.3663449 48.1598343,94.0494272 C48.9885764,95.7069114 49.9277108,97.3355976 50.65406,99.0346788 C51.5531972,101.136932 52.2059516,103.477568 53.8426372,105.16705 C54.532189,105.879001 55.8696955,105.733411 56.1624751,106.714142 C56.5336491,107.946056 56.1512759,109.449951 55.8680956,110.662666 C55.5545176,112.004972 55.1609451,113.33128 54.8137693,114.665586 C45.2688364,107.792467 38.448513,97.3755948 36.2854642,85.3572347 C36.9286192,85.3076382 37.5733742,85.2212442 37.947748,85.2212442 C39.1956608,85.2212442 39.2340581,85.1284507 40.1379949,84.2277136 C40.9299396,83.435769 41.4451036,83.2005854 41.4451036,82.1094617 L41.4451036,78.3145269 C42.9809963,79.0808733 44.5136891,79.8504195 46.0495818,80.6151661 C46.1167771,78.7544961 47.4462842,78.5161128 48.9789771,78.2585308 C50.7996499,77.9577518 51.9979661,76.0106879 53.6842483,76.0106879 C55.0745511,76.0106879 55.6521107,76.2762693 56.9576195,76.6986398 C57.6423716,76.924224 58.5015116,77.1850058 59.2166616,76.9626214 C60.1781944,76.6618424 59.9510103,74.9451623 60.2837871,74.1740162 C60.7621536,73.0588942 61.4901027,71.4814044 62.7796126,71.3742119 C64.1811147,71.2622197 65.9985877,70.6302639 64.4690946,69.1039706 C62.7908118,67.4256878 61.5364995,65.2850374 60.4021788,63.216382 C59.9174127,62.3284441 59.7958212,60.9285419 58.9782783,60.3157847 C57.1928031,58.9750784 54.5113905,60.7925514 53.1706842,61.9956673 C52.4171368,62.6756198 53.5994542,64.2387106 52.5643265,64.67548 C50.8812442,65.3890302 48.6845977,65.9617902 46.9471191,65.1314482 C45.9999853,64.6786798 45.4144262,63.5683574 44.3393013,63.3699713 C43.5969532,63.2355807 43.7473427,63.0275952 43.7473427,62.1956533 L43.7473427,57.9863475 C43.7473427,57.4039882 43.9089314,57.6327722 44.4384944,57.4807828 C46.5231487,56.8824247 45.2928347,54.1690143 47.3582904,54.1354166 C49.753323,54.0954194 47.3886882,50.0141047 46.7407335,49.1821628 C46.3775589,48.7149954 46.0159842,48.5054101 45.6208118,48.4110167 C54.0922198,37.7909589 67.1297086,30.9674357 81.7398876,30.9674357 C95.0365583,30.9674357 107.03252,36.6214406 115.46873,45.6432101 C112.985704,48.3406216 110.31709,51.4108071 108.502817,52.7723119 C107.258104,53.7050467 105.645417,54.2714071 104.255114,54.9657586 C102.868011,55.66171 100.986543,55.288936 99.4666487,55.288936 C99.0714764,55.288936 94.4030026,55.2249405 94.4030026,55.346532 C94.4030026,56.7304353 95.0957542,59.5462385 93.7598476,60.2165917 C92.164759,61.013336 90.3744842,61.6212935 89.1057728,62.886805 C88.745798,63.2467799 87.272301,64.2739081 87.6962713,64.6994784 C87.6978712,64.7010783 87.6994711,64.7026781 87.7026709,64.704278 C87.4706871,64.5794868 87.2323037,64.4994923 86.9843211,64.5074918 C85.1780473,64.5682875 82.936604,64.6450822 81.362314,65.6402126 C80.3639837,66.2705686 80.6343648,67.2241019 80.5015741,68.2720287 C80.3511846,69.4495464 79.9816105,70.6958593 79.1352696,71.5677984 C78.1241403,72.6109255 78.285729,72.7821135 78.285729,74.4747952 C80.0760039,74.2764091 81.8694785,74.0764231 83.6645531,73.8796368 C83.8757383,73.8508388 85.1924463,73.8444393 85.1924463,73.6092557 C85.1924463,73.1644868 84.9412639,71.6573921 85.2468425,71.3518135 C85.9251951,70.6734609 86.6115471,69.9871088 87.2946994,69.3039566 C87.7090704,68.8895855 88.4626178,70.0719029 88.8017941,70.4126791 C89.4257505,71.0350356 90.0353079,71.1678263 89.3729541,71.8237805 C88.7473979,72.4541364 88.1186418,73.0828925 87.4930855,73.7084488 C87.7714661,73.7084488 89.7921249,73.7836435 89.7969245,73.6556525 C89.8785188,71.9373725 90.9184461,70.2830882 92.0975637,69.1039706 C93.3710747,67.8304596 95.1165528,67.8160606 96.4892568,68.9167836 C97.044418,69.3647523 96.7036418,70.8030518 96.7036418,71.4062097 C96.7036418,71.8109814 96.5916497,76.0106879 96.8028349,76.0106879 C97.8155641,76.0106879 98.6987024,76.2442716 99.4746482,75.5867175 C102.141662,73.3420744 105.631018,73.8796368 108.216437,71.4062097 C108.982784,72.9405024 109.75233,74.4747952 110.518676,76.0106879 C108.690004,76.6218452 106.859732,77.2298027 105.03106,77.8393601 C104.88707,77.8857568 103.651956,78.3929214 103.587961,78.26973 C103.17039,77.4489874 102.725621,76.6074462 102.157661,75.8778972 C101.402513,74.906765 101.213727,75.7499061 101.362516,76.6426437 C101.604099,78.1177406 102.540034,79.4984441 103.555963,80.5639697 C104.621489,81.6806916 105.218247,83.8325413 105.912598,85.2228441 C105.768608,82.3926419 109.88832,86.8947272 110.518676,87.5234833 C111.491408,86.5507513 112.47054,85.5716197 113.441672,84.6020875 C113.928038,84.1157215 114.408005,83.635755 114.889571,83.1541887 C115.279944,82.7622161 114.844774,82.6502239 114.543995,82.2278534 C112.918509,79.9560122 117.092617,80.616766 118.361328,80.616766 C120.757961,80.616766 122.580233,81.2423223 124.332111,82.9190051 C122.106667,82.8038131 124.396107,85.2788402 124.908071,85.7940042 L124.908071,85.7940042 Z"></path>
                        <path d="M83.6565536,59.8918144 C83.1477892,60.4037786 82.6326252,60.9141429 82.1238608,61.427707 C81.5990974,61.6196936 80.731958,61.656491 80.6999603,62.2612488 C80.6615629,63.0083966 80.6279653,63.7507447 80.5879681,64.4978925 C81.591098,63.9971275 82.5942279,63.4947626 83.5957579,62.9955974 C83.9157355,62.8340087 83.6565536,60.3365833 83.6565536,59.8918144 L83.6565536,59.8918144 Z"></path>
                        <path d="M88.2226345,57.5895752 C88.7937946,57.5895752 89.7969245,57.9095529 89.7969245,57.2296004 L89.7969245,57.1864034 C89.9073168,57.4055881 90.1057029,57.5431785 90.4144814,57.5719765 C90.2304942,58.3463224 90.0289083,59.1206682 89.7969245,59.8934142 C90.4976755,59.1926632 91.1952268,58.4935121 91.8975777,57.7911612 C92.3679448,57.320794 92.0975637,56.1432763 92.0975637,55.5193199 L92.0975637,55.189743 L92.0975637,50.6828579 C92.0543668,50.7708518 91.9775721,50.9132418 91.8863785,51.0796302 C91.8575805,50.7548529 91.8431815,50.4364751 91.8095839,50.1084981 C91.7199901,50.6476604 91.6319963,51.182023 91.5424025,51.7179856 C90.9536437,52.8187087 90.1073028,54.4905918 89.7953246,55.7721023 L89.7953246,55.1913428 L89.7953246,50.6844578 C89.3313571,51.612393 85.7732057,57.5895752 88.2226345,57.5895752 L88.2226345,57.5895752 Z"></path>
                        <path d="M108.846793,94.3758044 C110.350688,94.124622 111.734591,93.166289 112.822515,92.1279615 C111.115435,91.5600012 109.413154,90.990441 107.704473,90.4224807 C105.794207,89.7857252 105.789407,89.5793396 104.864672,87.7250692 C104.139922,86.2707709 103.639157,85.2468424 102.511236,84.1189212 C101.687294,83.2949788 99.0074808,81.4631068 99.0074808,80.2551913 C99.0074808,78.4169197 99.3642559,78.312927 97.6427762,78.312927 L91.1728284,78.312927 L80.5879681,78.312927 C79.1960654,79.7240284 77.8457597,81.2583212 76.8234312,82.9622021 C75.0043583,85.9939902 77.2793993,87.5090843 79.2712601,89.6897319 C81.4023112,92.020769 80.5767689,95.9788924 84.5636902,96.6780435 C85.9859908,96.9244263 87.5938785,96.7308398 89.0337779,96.7308398 C89.2049659,96.7308398 92.3615453,96.2860709 92.0575665,95.7325096 C92.3919432,96.3324677 92.207956,97.9995512 92.3263477,98.7275003 C92.5967289,100.360986 92.9503041,101.983273 93.3118789,103.59756 C93.739049,105.522225 94.4046025,107.421293 94.4046025,109.395555 C94.4046025,111.425813 96.5180548,112.659327 97.9067578,114.04963 C98.4347209,114.577593 98.7370997,115.150353 99.4874473,115.150353 L103.387975,115.150353 C104.03433,115.150353 102.828014,107.163711 104.874271,106.154181 C105.45823,105.866201 106.613349,106.187779 106.958925,105.520626 C107.197308,105.067857 106.936527,104.511096 107.17491,104.059928 C107.74767,102.956005 109.099576,104.034329 109.230766,102.216856 C109.333159,100.74176 109.072377,97.6971723 108.03245,96.5292539 C106.766939,95.1085532 107.160511,94.6589846 108.846793,94.3758044 L108.846793,94.3758044 Z"></path>
                        <path d="M73.6508529,46.0495817 C72.4797347,44.8928626 71.217423,43.7969391 69.8639175,42.8562049 C68.0352453,41.5858937 66.6577416,41.4723016 64.4690946,41.4723016 C63.4227677,41.4723016 62.3556423,41.4003066 61.3125152,41.4851007 C60.8629466,41.5218981 61.0373344,42.024263 60.9077434,42.3570398 C60.1221983,44.3664993 56.8568265,46.7807306 55.2585382,48.3790189 C57.4695837,48.3790189 58.7030975,52.9658984 59.5414389,54.6425812 C60.0454037,55.6489109 59.8646163,56.6952377 59.8646163,57.8199591 C59.8646163,59.4662441 59.7222263,59.7510242 60.8597468,60.8885447 C61.9892679,62.0180658 61.8932746,62.4708341 63.0083966,61.355712 C64.1299183,60.2341904 65.24984,59.1142687 66.3697617,57.994347 C67.1057103,57.2551986 66.7713337,56.0584822 66.7713337,55.0569522 C66.7713337,53.5786556 66.2465703,52.985097 67.7424658,52.985097 C68.8911855,52.985097 69.9695102,53.0874899 70.8942455,52.2939453 C71.5949966,51.6891876 72.1405584,50.9276408 73.1036911,50.7372541 C74.1724164,50.5260689 76.4314586,50.1436956 75.9802901,48.3790189 C75.7979028,47.6638689 74.1980147,46.5903439 73.6508529,46.0495817 L73.6508529,46.0495817 Z"></path>
                    </g>
                </g>
            </g>
            <g id="title" transform="translate(0.000000, 160.000000)" font-size="80" font-family="Montserrat-Bold, Montserrat" font-weight="bold">
                <g id="Group">
                    <text id="WanderFolk">
                        <tspan x="0" y="77">WanderFolk</tspan>
                    </text>
                </g>
            </g>
        </g>
    </g>
</svg>